<?xml version="1.0" standalone="no"?>
<!DOCTYPE svg PUBLIC "-//W3C//DTD SVG 20010904//EN"
 "http://www.w3.org/TR/2001/REC-SVG-20010904/DTD/svg10.dtd">
<svg version="1.0" xmlns="http://www.w3.org/2000/svg"
 width="800.000000pt" height="400.000000pt" viewBox="0 0 800.000000 400.000000"
 preserveAspectRatio="xMidYMid meet">

<g transform="translate(0.000000,400.000000) scale(0.100000,-0.100000)"
fill="#000000" stroke="none">
<path d="M0 2000 l0 -2000 4000 0 4000 0 0 2000 0 2000 -4000 0 -4000 0 0
-2000z m2252 670 c134 -38 107 -240 -32 -240 -17 0 -41 5 -52 11 -18 10 -30 1
-110 -78 l-89 -89 25 -55 c28 -59 31 -85 16 -139 -19 -69 -64 -126 -122 -154
l-54 -26 8 -78 c3 -42 7 -91 7 -107 1 -28 6 -32 44 -42 23 -7 56 -22 71 -34
35 -28 66 -92 66 -139 0 -70 -59 -155 -123 -179 -74 -28 -180 11 -222 83 -55
94 -10 228 89 266 l29 11 -6 82 c-4 45 -7 93 -7 107 0 22 -7 27 -59 42 -72 21
-135 80 -152 142 -6 22 -13 46 -14 52 -3 12 -39 17 -197 29 -72 6 -77 5 -83
-15 -4 -12 -20 -36 -36 -55 -88 -100 -269 -30 -269 103 0 55 32 117 73 142 39
24 116 26 157 5 33 -17 80 -74 80 -98 0 -27 29 -34 156 -42 l122 -7 12 37 c40
121 184 178 311 123 l51 -21 85 85 85 85 -11 40 c-13 47 -3 84 32 122 37 40
63 46 119 31z m948 -537 c0 -276 -7 -358 -35 -417 -73 -153 -305 -185 -444
-60 l-50 45 72 84 72 84 30 -29 c32 -31 72 -39 93 -18 8 8 12 63 12 180 l0
168 -50 0 -50 0 0 109 0 110 48 4 c26 2 104 4 175 5 l127 2 0 -267z m365 85
c50 -98 92 -178 95 -178 3 0 46 80 95 178 l90 177 113 1 112 0 0 -398 0 -398
-115 0 -115 0 0 168 -1 167 -52 -97 -52 -98 -75 0 -75 0 -50 96 -50 95 -3
-165 -2 -166 -115 0 -115 0 0 398 0 399 113 -1 112 -1 90 -177z m195 175 c0
-12 -95 -193 -101 -193 -5 0 -87 148 -107 193 -2 4 44 7 102 7 58 0 106 -3
106 -7z m931 -30 c59 -29 153 -108 147 -123 -2 -4 -38 -37 -81 -74 l-77 -68
-39 31 c-66 53 -121 64 -185 37 -128 -54 -138 -258 -16 -321 37 -19 123 -19
158 -1 15 8 38 26 51 40 l24 25 83 -71 c46 -39 84 -75 84 -78 0 -17 -96 -94
-145 -116 -216 -99 -477 -8 -556 194 -17 44 -22 79 -23 157 -1 128 24 202 97
281 85 94 166 125 313 121 90 -2 107 -6 165 -34z m249 -363 l0 -400 -30 0 -30
0 0 400 0 400 30 0 30 0 0 -400z m421 371 c155 -49 258 -173 275 -332 12 -122
-28 -240 -108 -315 -96 -90 -171 -115 -370 -122 l-148 -5 0 403 0 403 143 -6
c101 -4 161 -12 208 -26z m399 26 c0 -2 -18 -21 -40 -42 l-40 -39 0 42 0 42
40 0 c22 0 40 -1 40 -3z m10 -82 c-73 -74 -85 -83 -88 -64 -5 31 112 149 147
149 23 0 15 -10 -59 -85z m45 -45 c-109 -110 -131 -127 -133 -109 -5 31 202
239 238 239 21 0 6 -19 -105 -130z m40 -40 c-118 -119 -171 -165 -173 -154 -5
23 295 324 323 324 14 0 -30 -50 -150 -170z m345 60 l0 -110 -145 0 -145 0 0
-40 0 -40 145 0 145 0 0 -105 0 -104 -142 -3 -143 -3 -3 -32 -3 -33 145 0 146
0 0 -110 0 -110 -260 0 -260 0 0 207 0 208 192 192 193 193 67 0 68 0 0 -110z
m224 -269 c162 -447 154 -421 129 -421 -16 0 -41 60 -161 389 -78 214 -142
394 -142 400 0 6 8 11 18 11 16 0 43 -67 156 -379z m93 312 c12 -38 43 -135
68 -217 30 -96 50 -144 55 -135 4 8 36 105 70 217 l63 202 125 0 c124 0 124 0
118 -22 -3 -13 -68 -192 -144 -398 l-137 -375 -59 0 -59 0 -143 395 c-79 217
-144 396 -144 397 0 2 37 3 83 3 l83 0 21 -67z"/>
</g>
</svg>
