<?xml version="1.0" encoding="UTF-8"?>
<svg version="1.1" xmlns="http://www.w3.org/2000/svg" width="520" height="520">
<path d="M0 0 C1.56999321 1.2142312 3.11306469 2.46419763 4.625 3.75 C5.35589844 4.37003906 6.08679688 4.99007812 6.83984375 5.62890625 C14.83572108 12.9994077 19.06653466 22.32670688 19.87890625 33.125 C20.31760146 46.93682341 17.1461582 58.64569037 7.66015625 68.8671875 C-3.3363473 79.40633196 -14.77621244 82.30674308 -29.4375 82.1171875 C-35.16282309 81.85954796 -39.61316256 80.28228355 -44.80859375 77.84375 C-47.52333413 76.48862694 -47.52333413 76.48862694 -51.375 76.75 C-53.49170206 78.49249607 -55.34156688 80.21151702 -57.24511719 82.16601562 C-57.82116196 82.74147629 -58.39720673 83.31693695 -58.9907074 83.90983582 C-60.89406287 85.81597997 -62.78285701 87.7359049 -64.671875 89.65625 C-65.98807917 90.97991372 -67.30516874 92.30269757 -68.62310791 93.62463379 C-72.09091857 97.10772305 -75.54655073 100.60265693 -78.99981689 104.10015869 C-82.52517918 107.66642526 -86.06188031 111.22140689 -89.59765625 114.77734375 C-96.53460786 121.75720557 -103.45875123 128.74962773 -110.375 135.75 C-109.1588734 138.86642414 -107.93662405 141.60349408 -106.0625 144.375 C-95.39747777 161.14330929 -91.21979034 182.40871287 -95.50195312 201.94018555 C-101.1081574 224.42271359 -113.39311543 243.51619312 -133.375 255.75 C-140.52755669 259.92718645 -149.95332181 264.75 -158.375 264.75 C-158.29983154 265.58414429 -158.22466309 266.41828857 -158.1472168 267.27770996 C-157.4372968 275.16275861 -156.73080163 283.04810516 -156.02809143 290.93379974 C-155.66675688 294.98728705 -155.30412824 299.04064966 -154.93847656 303.09375 C-154.58524142 307.0097621 -154.23549133 310.92607162 -153.88809204 314.84260559 C-153.75536566 316.33212752 -153.62141234 317.82154069 -153.48617554 319.31083679 C-152.1830099 333.67836454 -152.1830099 333.67836454 -152.375 340.75 C-151.69695312 340.78738281 -151.01890625 340.82476562 -150.3203125 340.86328125 C-132.28968713 342.13691268 -118.33928658 350.05576834 -105.8359375 362.84765625 C-92.21634892 378.91012341 -88.7013614 398.24071315 -90.375 418.75 C-93.23527275 436.15700302 -103.76828572 450.31409682 -117.58984375 460.8671875 C-133.0204482 471.29853581 -149.80826486 475.08923522 -168.08911133 471.61816406 C-180.51575961 469.00855501 -190.78401031 464.1713568 -200.375 455.75 C-201.39013672 454.87601562 -201.39013672 454.87601562 -202.42578125 453.984375 C-214.59195746 442.73952087 -221.10729601 427.09396882 -222.375 410.75 C-222.98827493 392.35175212 -217.07622168 375.83488952 -204.9375 361.96484375 C-196.66613128 353.22460384 -186.48147625 345.13649224 -174.375 342.75 C-173.055 342.75 -171.735 342.75 -170.375 342.75 C-170.4889209 341.95464844 -170.6028418 341.15929687 -170.72021484 340.33984375 C-172.61682662 326.22376806 -173.67844559 312.02945634 -174.83013916 297.83764648 C-175.11603826 294.32385105 -175.40585967 290.81037915 -175.6953125 287.296875 C-176.25896232 280.44822153 -176.81838937 273.59922908 -177.375 266.75 C-178.44008789 266.63100342 -179.50517578 266.51200684 -180.60253906 266.3894043 C-182.03193957 266.22217148 -183.46129944 266.05459097 -184.890625 265.88671875 C-185.93790771 265.7711261 -185.93790771 265.7711261 -187.00634766 265.65319824 C-207.03866392 263.2620576 -224.94004558 252.19433716 -237.75 236.8125 C-246.8487928 224.61053997 -254.48047846 209.68879533 -254.39794922 194.08813477 C-254.39463593 193.27619156 -254.39132263 192.46424835 -254.38790894 191.62770081 C-254.38364899 191.00805954 -254.37938904 190.38841827 -254.375 189.75 C-255.40761963 189.70681641 -256.44023926 189.66363281 -257.50415039 189.61914062 C-273.38577379 188.90950657 -289.23515283 187.74861876 -305.08911133 186.59326172 C-309.06285663 186.30378427 -313.03694304 186.01930541 -317.01113796 185.73607635 C-320.10053101 185.51524238 -323.18970628 185.29147423 -326.27882576 185.06684875 C-327.74552388 184.96061446 -329.21229361 184.85536386 -330.67913628 184.75114441 C-332.71658232 184.60601553 -334.75369394 184.45684188 -336.79077148 184.30664062 C-337.94512192 184.22305298 -339.09947235 184.13946533 -340.2888031 184.05334473 C-343.04600608 183.78233707 -345.67318145 183.35182978 -348.375 182.75 C-348.51035156 183.41644531 -348.64570313 184.08289063 -348.78515625 184.76953125 C-350.59372048 192.51278527 -353.76376796 198.31499978 -358.375 204.75 C-359.096875 205.78125 -359.81875 206.8125 -360.5625 207.875 C-371.12903008 219.7882447 -385.69223485 225.79281018 -401.2734375 226.96875 C-417.14194594 227.46854554 -430.96768471 222.04900195 -442.75 211.5 C-452.99169152 201.8693326 -459.81775023 189.13413506 -460.578125 174.96484375 C-460.89619174 157.62514141 -456.81488346 144.04826115 -445.375 130.75 C-444.82585937 130.07066406 -444.27671875 129.39132813 -443.7109375 128.69140625 C-435.98403539 119.96034725 -423.01907904 113.57658586 -411.375 112.75 C-409.81265625 112.63011719 -409.81265625 112.63011719 -408.21875 112.5078125 C-392.13972526 111.89217417 -377.43577757 116.51920288 -365.125 127 C-355.38508845 136.21426553 -347.73942678 148.54605018 -347.25 162.25 C-347.29125 163.075 -347.3325 163.9 -347.375 164.75 C-345.49192139 164.70939453 -345.49192139 164.70939453 -343.57080078 164.66796875 C-335.10745265 164.67241466 -326.67701824 165.43454861 -318.2421875 166.0625 C-316.39562238 166.19733702 -314.54903382 166.33185336 -312.7024231 166.46606445 C-307.87227974 166.81797469 -303.04246463 167.17420515 -298.21270752 167.53137207 C-293.27220619 167.89594791 -288.33140325 168.25638754 -283.390625 168.6171875 C-273.71845236 169.32410387 -264.04662183 170.03559002 -254.375 170.75 C-253.98393066 169.53546143 -253.59286133 168.32092285 -253.18994141 167.06958008 C-252.66077306 165.44863535 -252.131297 163.82779105 -251.6015625 162.20703125 C-251.34576416 161.40978638 -251.08996582 160.6125415 -250.82641602 159.7911377 C-244.80457416 141.45870311 -231.71858692 124.8516023 -214.46630859 115.7421875 C-203.68485088 110.43888997 -192.45508181 106.39782773 -180.375 105.75 C-179.37210937 105.68554688 -178.36921875 105.62109375 -177.3359375 105.5546875 C-160.00555229 104.95708801 -142.18037405 109.61838534 -128.53125 120.4921875 C-126.50471303 121.96895155 -126.50471303 121.96895155 -124.42706299 121.49514771 C-122.15261894 120.66924871 -121.07052492 119.80404866 -119.38574219 118.08544922 C-118.83126404 117.52751678 -118.27678589 116.96958435 -117.70550537 116.39474487 C-117.11690735 115.78752594 -116.52830933 115.18030701 -115.921875 114.5546875 C-115.30282288 113.92901886 -114.68377075 113.30335022 -114.04595947 112.65872192 C-112.0650847 110.65445148 -110.09460431 108.64034188 -108.125 106.625 C-105.54025831 103.9936346 -102.95123477 101.36654115 -100.359375 98.7421875 C-99.73482422 98.10900101 -99.11027344 97.47581451 -98.46679688 96.82344055 C-94.89018865 93.21625458 -91.24123495 89.78435108 -87.36035156 86.50390625 C-82.65026767 82.3429074 -78.29852986 77.77426324 -73.875 73.3125 C-72.85179861 72.2842702 -71.82836267 71.25627374 -70.8046875 70.22851562 C-68.32542001 67.73835662 -65.84932462 65.24507167 -63.375 62.75 C-63.6829248 61.98357178 -63.99084961 61.21714355 -64.30810547 60.42749023 C-69.6385871 47.05005497 -71.8636523 34.10364993 -66.4453125 20.3984375 C-61.2260098 8.77199079 -52.00946738 -0.38006445 -40.125 -5.0625 C-26.58075515 -9.35151087 -11.96932211 -8.02238307 0 0 Z " fill="#55D3C4" transform="translate(480.375,27.25)"/>
</svg>
