<?xml version="1.0" standalone="no"?>
<!DOCTYPE svg PUBLIC "-//W3C//DTD SVG 20010904//EN"
 "http://www.w3.org/TR/2001/REC-SVG-20010904/DTD/svg10.dtd">
<svg version="1.0" xmlns="http://www.w3.org/2000/svg"
 width="1080.000000pt" height="1080.000000pt" viewBox="0 0 1080.000000 1080.000000"
 preserveAspectRatio="xMidYMid meet">

<g transform="translate(0.000000,1080.000000) scale(0.100000,-0.100000)"
fill="#000000" stroke="none">
<path d="M0 5400 l0 -5400 5400 0 5400 0 0 5400 0 5400 -5400 0 -5400 0 0
-5400z m4600 300 c26 -26 25 -55 -1 -81 -15 -15 -28 -19 -45 -15 -19 5 -33 -2
-66 -32 -40 -37 -40 -39 -29 -74 16 -49 6 -82 -38 -121 -35 -30 -37 -35 -33
-79 3 -40 8 -48 33 -59 83 -34 55 -159 -35 -159 -26 0 -40 7 -60 31 -36 42
-33 74 9 116 31 31 34 38 29 77 -5 35 -12 45 -42 62 -20 10 -43 33 -52 49 -8
17 -16 32 -18 35 -1 2 -28 7 -59 10 -53 6 -58 5 -82 -22 -33 -38 -84 -36 -114
4 -57 76 55 151 117 78 21 -25 35 -31 83 -36 56 -6 59 -5 70 19 20 44 56 60
117 54 52 -5 55 -4 90 32 24 25 36 46 36 66 0 57 52 83 90 45z m420 -255 c0
-172 -10 -208 -64 -230 -20 -8 -48 -15 -63 -15 -31 0 -108 40 -108 56 0 5 12
25 27 44 25 32 28 33 53 20 36 -20 45 -3 45 88 0 70 -1 72 -25 72 -23 0 -25 3
-25 49 0 57 2 58 98 60 l62 1 0 -145z m260 135 c0 -13 -33 -80 -39 -80 -10 0
-49 78 -43 84 9 10 82 6 82 -4z m399 0 c51 -9 111 -44 111 -64 0 -6 -16 -24
-35 -39 -33 -26 -37 -27 -57 -13 -56 40 -128 3 -128 -65 0 -29 6 -42 26 -58
32 -25 55 -26 95 -6 28 15 31 14 64 -11 19 -14 35 -31 35 -38 0 -18 -66 -58
-114 -68 -61 -13 -119 4 -169 52 -40 37 -42 40 -45 113 -4 81 6 112 54 160 24
24 66 43 100 46 6 1 34 -3 63 -9z m161 -181 c0 -148 -3 -190 -12 -187 -10 4
-14 50 -16 178 -3 177 -1 200 18 200 6 0 10 -66 10 -191z m216 170 c83 -25
136 -148 103 -236 -14 -38 -57 -83 -96 -99 -18 -8 -67 -17 -108 -21 l-75 -6 0
192 0 192 73 -6 c39 -4 86 -11 103 -16z m164 12 c0 -5 -7 -14 -15 -21 -13 -10
-15 -9 -15 9 0 12 6 21 15 21 8 0 15 -4 15 -9z m15 -31 c-16 -17 -33 -30 -39
-30 -5 0 5 16 24 35 18 19 36 32 39 30 2 -3 -8 -19 -24 -35z m195 -10 l0 -50
-65 0 c-58 0 -65 -2 -65 -20 0 -18 7 -20 65 -20 l65 0 0 -50 0 -49 -62 -3
c-50 -2 -63 -6 -66 -20 -3 -16 5 -18 62 -18 l66 0 0 -50 0 -50 -120 0 -120 0
0 97 0 98 92 92 c72 73 99 93 120 93 27 0 28 -2 28 -50z m109 -128 c57 -153
77 -226 49 -178 -14 25 -128 334 -128 348 0 30 22 -19 79 -170z m65 81 c17
-51 33 -93 37 -93 3 0 19 43 34 95 l28 95 59 0 c57 0 59 -1 52 -22 -3 -13 -34
-96 -67 -186 l-59 -163 -30 3 c-30 3 -32 8 -94 176 -35 96 -64 178 -64 184 0
5 17 8 37 6 l37 -3 30 -92z m-1410 12 c22 -41 43 -75 48 -75 4 0 25 34 45 75
l37 75 53 0 53 0 0 -185 0 -185 -50 0 -49 0 -3 78 -3 77 -23 -42 c-20 -39 -26
-43 -61 -43 -35 0 -39 3 -57 42 l-19 43 -5 -75 -5 -75 -52 -3 -53 -3 0 185 0
186 53 0 52 0 39 -75z m1061 25 c-27 -27 -51 -47 -54 -45 -6 7 80 95 93 95 6
0 -12 -22 -39 -50z m20 -20 c-38 -38 -71 -67 -74 -64 -6 6 120 134 133 134 6
0 -21 -31 -59 -70z"/>
</g>
</svg>
